
      <svg data-logo="logo" xmlns="http://www.w3.org/2000/svg" viewBox="0 0 195.95000457763672 42">
        <g id="logogram" transform="
    translate(0, 0.5)
    rotate(0 35 20.5)
    
  "><path d="M46.7598 40.2H62.907L22.9072 0.199982H6.75983L46.7598 40.2Z" fill="#7476ED"/><path d="M31.2028 0.199984L69.762 38.7592V0.199982H59.3272V12.3738L47.1532 0.199982L31.2028 0.199984Z" fill="#E56F8C"/><path d="M0 1.53906V40.1998H10.4348V28.0259L22.6086 40.1998H38.6608L0 1.53906Z" fill="#64C2DB"/></g>
        <g id="logotype" transform="translate(76, 7.81201171875)"><path fill="#ffffff" d="M13.64 26L8.31 26L8.31 0.54L14.12 0.54L22.17 13.42Q22.78 14.41 23.41 15.58Q24.05 16.74 24.70 18.16Q25.36 19.57 26.01 21.35L26.01 21.35L25.48 21.35Q25.36 19.93 25.27 18.33Q25.17 16.72 25.11 15.25Q25.04 13.78 25.04 12.76L25.04 12.76L25.04 0.54L30.37 0.54L30.37 26L24.54 26L17.23 14.31Q16.42 12.99 15.74 11.76Q15.06 10.52 14.31 9.01Q13.57 7.51 12.55 5.44L12.55 5.44L13.21 5.44Q13.31 7.29 13.42 8.98Q13.52 10.67 13.58 12.05Q13.64 13.42 13.64 14.29L13.64 14.29L13.64 26ZM41.22 26.38L41.22 26.38Q38.30 26.38 36.18 25.18Q34.06 23.98 32.92 21.78Q31.79 19.57 31.79 16.55L31.79 16.55Q31.79 13.59 32.91 11.37Q34.04 9.15 36.11 7.90Q38.18 6.65 40.96 6.65L40.96 6.65Q42.84 6.65 44.47 7.25Q46.09 7.85 47.32 9.06Q48.55 10.26 49.24 12.07Q49.94 13.88 49.94 16.34L49.94 16.34L49.94 17.78L33.89 17.78L33.89 14.57L47.42 14.57L45.03 15.42Q45.03 13.93 44.58 12.83Q44.13 11.73 43.23 11.12Q42.33 10.52 41.00 10.52L41.00 10.52Q39.68 10.52 38.75 11.13Q37.82 11.75 37.34 12.80Q36.86 13.85 36.86 15.20L36.86 15.20L36.86 17.47Q36.86 19.13 37.42 20.26Q37.97 21.39 38.97 21.95Q39.97 22.51 41.31 22.51L41.31 22.51Q42.21 22.51 42.95 22.26Q43.68 22.00 44.20 21.50Q44.72 20.99 45.00 20.26L45.00 20.26L49.65 21.13Q49.18 22.70 48.04 23.89Q46.89 25.08 45.18 25.73Q43.46 26.38 41.22 26.38ZM57.74 26.24L57.74 26.24Q55.76 26.24 54.27 25.38Q52.79 24.51 51.98 22.90Q51.16 21.28 51.16 19.04L51.16 19.04L51.16 6.89L56.29 6.89L56.29 18.16Q56.29 19.93 57.21 20.94Q58.14 21.95 59.74 21.95L59.74 21.95Q60.84 21.95 61.67 21.48Q62.51 21.01 62.98 20.11Q63.45 19.22 63.45 17.95L63.45 17.95L63.45 6.89L68.58 6.89L68.58 26L63.74 26L63.67 21.23L63.96 21.23Q63.21 23.64 61.67 24.94Q60.12 26.24 57.74 26.24ZM75.81 26L70.68 26L70.68 6.89L75.63 6.89L75.63 10.23L75.84 10.23Q76.37 8.45 77.61 7.54Q78.85 6.64 80.45 6.64L80.45 6.64Q80.85 6.64 81.30 6.68Q81.75 6.72 82.11 6.81L82.11 6.81L82.11 11.39Q81.77 11.27 81.12 11.20Q80.47 11.13 79.89 11.13L79.89 11.13Q78.73 11.13 77.79 11.64Q76.85 12.14 76.33 13.04Q75.81 13.93 75.81 15.13L75.81 15.13L75.81 26ZM91.20 26.38L91.20 26.38Q88.33 26.38 86.23 25.14Q84.13 23.90 82.99 21.68Q81.85 19.47 81.85 16.53L81.85 16.53Q81.85 13.56 82.99 11.35Q84.13 9.13 86.23 7.89Q88.33 6.65 91.20 6.65L91.20 6.65Q94.09 6.65 96.18 7.89Q98.28 9.13 99.41 11.35Q100.55 13.56 100.55 16.53L100.55 16.53Q100.55 19.47 99.41 21.68Q98.28 23.90 96.18 25.14Q94.09 26.38 91.20 26.38ZM91.20 22.34L91.20 22.34Q92.57 22.34 93.49 21.58Q94.41 20.82 94.88 19.50Q95.34 18.17 95.34 16.52L95.34 16.52Q95.34 14.82 94.88 13.51Q94.41 12.19 93.49 11.44Q92.57 10.69 91.20 10.69L91.20 10.69Q89.83 10.69 88.92 11.44Q88.01 12.19 87.54 13.51Q87.08 14.82 87.08 16.52L87.08 16.52Q87.08 18.17 87.54 19.50Q88.01 20.82 88.92 21.58Q89.83 22.34 91.20 22.34ZM106.97 14.94L106.97 14.94L106.97 26L101.85 26L101.85 6.89L106.68 6.89L106.77 11.66L106.46 11.66Q107.21 9.27 108.74 7.96Q110.27 6.65 112.70 6.65L112.70 6.65Q114.68 6.65 116.15 7.52Q117.62 8.38 118.44 10.00Q119.26 11.61 119.26 13.85L119.26 13.85L119.26 26L114.13 26L114.13 14.74Q114.13 12.96 113.22 11.95Q112.31 10.94 110.68 10.94L110.68 10.94Q109.61 10.94 108.76 11.41Q107.91 11.88 107.44 12.77Q106.97 13.66 106.97 14.94Z"/></g>
        
      </svg>
    